<svg data-v-fde0c5aa="" xmlns="http://www.w3.org/2000/svg" viewBox="0 0 300 300" class="iconAbove"><!----><defs data-v-fde0c5aa=""><!----></defs><rect data-v-fde0c5aa="" fill="transparent" x="0" y="0" width="300px" height="300px" class="logo-background-square"></rect><defs data-v-fde0c5aa=""><!----></defs><g data-v-fde0c5aa="" id="ee5f0c8a-4cbb-40f8-af9e-d2778d115916" fill="#FB0200" transform="matrix(4.019900497512438,0,0,4.019900497512438,13.323397940071057,178.35582112554295)"><path d="M6.19 9.52L6.19 9.52L6.19 9.52Q6.33 9.52 6.52 9.57L6.52 9.57L6.52 9.57Q6.71 9.62 6.86 9.70L6.86 9.70L6.86 9.70Q7.01 9.77 7.12 9.86L7.12 9.86L7.12 9.86Q7.22 9.94 7.22 10.01L7.22 10.01L7.22 10.01Q6.94 10.60 6.71 11.19L6.71 11.19L6.71 11.19Q6.47 11.79 6.30 12.33L6.30 12.33L6.30 12.33Q6.13 12.88 6.04 13.36L6.04 13.36L6.04 13.36Q5.95 13.83 5.95 14.18L5.95 14.18L5.95 14.18Q5.95 14.57 6.03 14.83L6.03 14.83L6.03 14.83Q6.12 15.09 6.31 15.20L6.31 15.20L6.31 15.20Q6.15 15.32 5.88 15.39L5.88 15.39L5.88 15.39Q5.61 15.46 5.40 15.46L5.40 15.46L5.40 15.46Q4.65 15.46 4.65 14.42L4.65 14.42L4.65 14.42Q4.65 13.62 5.18 12.24L5.18 12.24L5.18 12.24Q4.90 12.88 4.54 13.45L4.54 13.45L4.54 13.45Q4.17 14.01 3.79 14.45L3.79 14.45L3.79 14.45Q3.42 14.88 3.03 15.15L3.03 15.15L3.03 15.15Q2.65 15.43 2.32 15.48L2.32 15.48L2.32 15.48Q1.81 15.46 1.48 14.99L1.48 14.99L1.48 14.99Q1.16 14.52 1.16 13.79L1.16 13.79L1.16 13.79Q1.16 13.01 1.50 12.14L1.50 12.14L1.50 12.14Q1.83 11.27 2.36 10.53L2.36 10.53L2.36 10.53Q2.88 9.79 3.50 9.29L3.50 9.29L3.50 9.29Q4.12 8.79 4.69 8.76L4.69 8.76L4.69 8.76Q4.83 8.81 5.00 8.93L5.00 8.93L5.00 8.93Q5.18 9.06 5.34 9.23L5.34 9.23L5.34 9.23Q5.50 9.39 5.61 9.57L5.61 9.57L5.61 9.57Q5.73 9.74 5.74 9.87L5.74 9.87L5.74 9.87Q5.18 9.95 4.58 10.42L4.58 10.42L4.58 10.42Q3.99 10.88 3.51 11.53L3.51 11.53L3.51 11.53Q3.02 12.18 2.72 12.92L2.72 12.92L2.72 12.92Q2.41 13.66 2.41 14.31L2.41 14.31L2.41 14.31Q2.41 14.57 2.60 14.64L2.60 14.64L2.60 14.64Q3.01 14.56 3.54 13.95L3.54 13.95L3.54 13.95Q4.07 13.34 4.83 12.07L4.83 12.07L4.83 12.07Q4.97 11.82 5.15 11.51L5.15 11.51L5.15 11.51Q5.32 11.20 5.50 10.86L5.50 10.86L5.50 10.86Q5.68 10.53 5.86 10.18L5.86 10.18L5.86 10.18Q6.03 9.84 6.19 9.52ZM7.92 14.28L7.92 14.28L7.92 14.28Q7.92 13.66 8.22 12.55L8.22 12.55L8.22 12.55Q8.51 11.44 9.04 9.95L9.04 9.95L9.04 9.95Q9.91 7.59 10.68 6.01L10.68 6.01L10.68 6.01Q11.44 4.44 12.17 3.56L12.17 3.56L12.17 3.56Q12.33 3.58 12.58 3.70L12.58 3.70L12.58 3.70Q12.82 3.81 13.06 3.94L13.06 3.94L13.06 3.94Q13.30 4.07 13.49 4.21L13.49 4.21L13.49 4.21Q13.68 4.35 13.73 4.44L13.73 4.44L13.73 4.44Q12.64 5.73 11.82 7.21L11.82 7.21L11.82 7.21Q10.99 8.69 10.30 10.61L10.30 10.61L10.30 10.61Q9.72 12.26 9.41 13.59L9.41 13.59L9.41 13.59Q9.10 14.91 9.10 15.79L9.10 15.79L9.10 15.79Q9.10 16.03 9.10 16.09L9.10 16.09L9.10 16.09Q9.10 16.14 9.11 16.20L9.11 16.20L9.11 16.20Q8.92 16.17 8.78 16.10L8.78 16.10L8.78 16.10Q8.64 16.03 8.60 15.93L8.60 15.93L8.60 15.93Q8.57 15.86 8.44 15.73L8.44 15.73L8.44 15.73Q8.32 15.60 8.22 15.53L8.22 15.53L8.22 15.53Q8.09 15.44 8.01 15.09L8.01 15.09L8.01 15.09Q7.92 14.73 7.92 14.28ZM11.28 14.60L11.28 14.60L11.28 14.60Q11.28 14.32 11.35 13.82L11.35 13.82L11.35 13.82Q11.41 13.31 11.52 12.73L11.52 12.73L11.52 12.73Q11.62 12.14 11.75 11.52L11.75 11.52L11.75 11.52Q11.89 10.91 12.03 10.42L12.03 10.42L12.03 10.42Q12.21 9.76 12.59 9.40L12.59 9.40L12.59 9.40Q12.98 9.04 13.55 9.04L13.55 9.04L13.55 9.04Q13.86 9.04 14.16 9.14L14.16 9.14L14.16 9.14Q14.46 9.24 14.52 9.39L14.52 9.39L14.52 9.39Q14.11 9.73 13.87 10.23L13.87 10.23L13.87 10.23Q13.62 10.72 13.48 11.29L13.48 11.29L13.48 11.29Q13.33 11.86 13.25 12.45L13.25 12.45L13.25 12.45Q13.17 13.05 13.09 13.57L13.09 13.57L13.09 13.57Q13.55 12.95 13.96 12.45L13.96 12.45L13.96 12.45Q14.38 11.96 14.70 11.66L14.70 11.66L14.70 11.66Q15.13 11.26 15.29 10.98L15.29 10.98L15.29 10.98Q15.44 10.71 15.55 10.39L15.55 10.39L15.55 10.39Q15.64 10.14 15.76 9.80L15.76 9.80L15.76 9.80Q15.88 9.46 16.16 9.18L16.16 9.18L16.16 9.18Q16.21 9.17 16.39 9.17L16.39 9.17L16.39 9.17Q16.53 9.17 16.70 9.18L16.70 9.18L16.70 9.18Q16.86 9.20 17.00 9.24L17.00 9.24L17.00 9.24Q17.14 9.28 17.23 9.34L17.23 9.34L17.23 9.34Q17.33 9.39 17.35 9.48L17.35 9.48L17.35 9.48Q17.12 9.77 16.93 10.39L16.93 10.39L16.93 10.39Q16.73 11.02 16.58 11.76L16.58 11.76L16.58 11.76Q16.42 12.50 16.30 13.24L16.30 13.24L16.30 13.24Q16.17 13.97 16.07 14.48L16.07 14.48L16.07 14.48Q16.13 14.45 16.32 14.25L16.32 14.25L16.32 14.25Q16.52 14.06 16.77 13.76L16.77 13.76L16.77 13.76Q17.01 13.47 17.28 13.12L17.28 13.12L17.28 13.12Q17.56 12.77 17.77 12.43L17.77 12.43L17.77 12.43Q18.03 12.03 18.21 11.67L18.21 11.67L18.21 11.67Q18.38 11.31 18.52 10.91L18.52 10.91L18.52 10.91Q18.65 10.50 18.76 10.00L18.76 10.00L18.76 10.00Q18.87 9.51 19.00 8.82L19.00 8.82L19.00 8.82Q19.08 8.71 19.37 8.63L19.37 8.63L19.37 8.63Q19.66 8.55 19.89 8.55L19.89 8.55L19.89 8.55Q20.10 8.55 20.20 8.62L20.20 8.62L20.20 8.62Q20.13 9.41 19.94 10.02L19.94 10.02L19.94 10.02Q19.75 10.64 19.43 11.22L19.43 11.22L19.43 11.22Q19.11 11.80 18.63 12.38L18.63 12.38L18.63 12.38Q18.16 12.96 17.51 13.65L17.51 13.65L17.51 13.65Q17.25 13.93 16.93 14.27L16.93 14.27L16.93 14.27Q16.62 14.60 16.32 14.89L16.32 14.89L16.32 14.89Q16.02 15.18 15.76 15.37L15.76 15.37L15.76 15.37Q15.50 15.57 15.36 15.57L15.36 15.57L15.36 15.57Q15.04 15.57 14.83 15.32L14.83 15.32L14.83 15.32Q14.62 15.06 14.62 14.67L14.62 14.67L14.62 14.67Q14.62 14.27 14.65 13.96L14.65 13.96L14.65 13.96Q14.69 13.66 14.77 13.33L14.77 13.33L14.77 13.33Q14.85 13.02 14.90 12.81L14.90 12.81L14.90 12.81Q14.95 12.60 14.99 12.45L14.99 12.45L14.99 12.45Q15.02 12.29 15.04 12.18L15.04 12.18L15.04 12.18Q15.05 12.07 15.06 11.96L15.06 11.96L15.06 11.96Q14.95 12.01 14.77 12.19L14.77 12.19L14.77 12.19Q14.59 12.36 14.39 12.59L14.39 12.59L14.39 12.59Q14.20 12.82 14 13.06L14 13.06L14 13.06Q13.80 13.30 13.68 13.47L13.68 13.47L13.68 13.47Q13.41 13.83 13.22 14.11L13.22 14.11L13.22 14.11Q13.02 14.39 12.85 14.64L12.85 14.64L12.85 14.64Q12.67 14.90 12.50 15.15L12.50 15.15L12.50 15.15Q12.33 15.41 12.11 15.71L12.11 15.71L12.11 15.71Q11.66 15.57 11.47 15.29L11.47 15.29L11.47 15.29Q11.28 15.01 11.28 14.60ZM24.88 9.52L24.88 9.52L24.88 9.52Q25.02 9.52 25.21 9.57L25.21 9.57L25.21 9.57Q25.40 9.62 25.55 9.70L25.55 9.70L25.55 9.70Q25.70 9.77 25.81 9.86L25.81 9.86L25.81 9.86Q25.91 9.94 25.91 10.01L25.91 10.01L25.91 10.01Q25.63 10.60 25.40 11.19L25.40 11.19L25.40 11.19Q25.16 11.79 24.99 12.33L24.99 12.33L24.99 12.33Q24.82 12.88 24.73 13.36L24.73 13.36L24.73 13.36Q24.64 13.83 24.64 14.18L24.64 14.18L24.64 14.18Q24.64 14.57 24.72 14.83L24.72 14.83L24.72 14.83Q24.81 15.09 25.00 15.20L25.00 15.20L25.00 15.20Q24.84 15.32 24.57 15.39L24.57 15.39L24.57 15.39Q24.30 15.46 24.09 15.46L24.09 15.46L24.09 15.46Q23.34 15.46 23.34 14.42L23.34 14.42L23.34 14.42Q23.34 13.62 23.87 12.24L23.87 12.24L23.87 12.24Q23.59 12.88 23.23 13.45L23.23 13.45L23.23 13.45Q22.86 14.01 22.48 14.45L22.48 14.45L22.48 14.45Q22.11 14.88 21.72 15.15L21.72 15.15L21.72 15.15Q21.34 15.43 21.01 15.48L21.01 15.48L21.01 15.48Q20.50 15.46 20.17 14.99L20.17 14.99L20.17 14.99Q19.85 14.52 19.85 13.79L19.85 13.79L19.85 13.79Q19.85 13.01 20.19 12.14L20.19 12.14L20.19 12.14Q20.52 11.27 21.05 10.53L21.05 10.53L21.05 10.53Q21.57 9.79 22.19 9.29L22.19 9.29L22.19 9.29Q22.81 8.79 23.38 8.76L23.38 8.76L23.38 8.76Q23.52 8.81 23.70 8.93L23.70 8.93L23.70 8.93Q23.87 9.06 24.03 9.23L24.03 9.23L24.03 9.23Q24.19 9.39 24.30 9.57L24.30 9.57L24.30 9.57Q24.42 9.74 24.43 9.87L24.43 9.87L24.43 9.87Q23.87 9.95 23.28 10.42L23.28 10.42L23.28 10.42Q22.68 10.88 22.20 11.53L22.20 11.53L22.20 11.53Q21.71 12.18 21.41 12.92L21.41 12.92L21.41 12.92Q21.10 13.66 21.10 14.31L21.10 14.31L21.10 14.31Q21.10 14.57 21.29 14.64L21.29 14.64L21.29 14.64Q21.70 14.56 22.23 13.95L22.23 13.95L22.23 13.95Q22.76 13.34 23.52 12.07L23.52 12.07L23.52 12.07Q23.66 11.82 23.84 11.51L23.84 11.51L23.84 11.51Q24.01 11.20 24.19 10.86L24.19 10.86L24.19 10.86Q24.37 10.53 24.55 10.18L24.55 10.18L24.55 10.18Q24.72 9.84 24.88 9.52ZM31.84 13.01L31.84 13.01L31.84 13.01Q31.51 14.03 31.19 14.87L31.19 14.87L31.19 14.87Q30.87 15.71 30.51 16.41L30.51 16.41L30.51 16.41Q30.14 17.12 29.72 17.72L29.72 17.72L29.72 17.72Q29.30 18.31 28.80 18.84L28.80 18.84L28.80 18.84Q28.15 19.52 27.47 19.87L27.47 19.87L27.47 19.87Q26.78 20.23 26.10 20.23L26.10 20.23L26.10 20.23Q25.75 20.23 25.40 20.15L25.40 20.15L25.40 20.15Q25.06 20.08 24.76 19.94L24.76 19.94L24.76 19.94Q24.46 19.81 24.23 19.64L24.23 19.64L24.23 19.64Q24.00 19.46 23.90 19.26L23.90 19.26L23.90 19.26Q23.90 19.10 24.09 18.97L24.09 18.97L24.09 18.97Q24.26 19.12 24.37 19.21L24.37 19.21L24.37 19.21Q24.49 19.29 24.59 19.35L24.59 19.35L24.59 19.35Q24.70 19.40 24.82 19.42L24.82 19.42L24.82 19.42Q24.93 19.43 25.09 19.43L25.09 19.43L25.09 19.43Q25.89 19.43 26.65 18.96L26.65 18.96L26.65 18.96Q27.41 18.49 28.09 17.63L28.09 17.63L28.09 17.63Q28.77 16.77 29.33 15.55L29.33 15.55L29.33 15.55Q29.89 14.32 30.28 12.81L30.28 12.81L30.28 12.81Q30.10 13.09 29.83 13.50L29.83 13.50L29.83 13.50Q29.57 13.90 29.25 14.30L29.25 14.30L29.25 14.30Q28.92 14.70 28.58 15.02L28.58 15.02L28.58 15.02Q28.24 15.34 27.92 15.46L27.92 15.46L27.92 15.46Q27.69 15.44 27.45 15.37L27.45 15.37L27.45 15.37Q27.20 15.29 26.99 15.15L26.99 15.15L26.99 15.15Q26.77 15.01 26.60 14.81L26.60 14.81L26.60 14.81Q26.43 14.62 26.38 14.36L26.38 14.36L26.38 14.36Q26.38 13.96 26.40 13.71L26.40 13.71L26.40 13.71Q26.43 13.47 26.50 13.17L26.50 13.17L26.50 13.17Q26.63 12.64 26.87 11.97L26.87 11.97L26.87 11.97Q27.12 11.30 27.45 10.65L27.45 10.65L27.45 10.65Q27.78 10.00 28.18 9.43L28.18 9.43L28.18 9.43Q28.57 8.86 29.01 8.54L29.01 8.54L29.01 8.54Q29.12 8.54 29.29 8.56L29.29 8.56L29.29 8.56Q29.46 8.58 29.64 8.64L29.64 8.64L29.64 8.64Q29.82 8.69 29.99 8.77L29.99 8.77L29.99 8.77Q30.16 8.85 30.28 8.97L30.28 8.97L30.28 8.97Q30.13 9.11 29.61 9.91L29.61 9.91L29.61 9.91Q29.09 10.71 28.46 12.21L28.46 12.21L28.46 12.21Q28.39 12.36 28.29 12.66L28.29 12.66L28.29 12.66Q28.20 12.95 28.11 13.27L28.11 13.27L28.11 13.27Q28.01 13.59 27.94 13.90L27.94 13.90L27.94 13.90Q27.87 14.21 27.87 14.39L27.87 14.39L27.87 14.39Q27.87 14.50 27.91 14.56L27.91 14.56L27.91 14.56Q27.94 14.62 27.97 14.64L27.97 14.64L27.97 14.64Q28.22 14.60 28.64 14.23L28.64 14.23L28.64 14.23Q29.06 13.86 29.60 13.08L29.60 13.08L29.60 13.08Q29.93 12.57 30.21 12.07L30.21 12.07L30.21 12.07Q30.49 11.58 30.77 11.07L30.77 11.07L30.77 11.07Q31.04 10.57 31.33 10.04L31.33 10.04L31.33 10.04Q31.63 9.51 31.96 8.95L31.96 8.95L31.96 8.95Q32.14 8.95 32.35 8.99L32.35 8.99L32.35 8.99Q32.56 9.03 32.76 9.09L32.76 9.09L32.76 9.09Q32.96 9.16 33.10 9.23L33.10 9.23L33.10 9.23Q33.25 9.31 33.32 9.39L33.32 9.39L33.32 9.39Q32.89 10.32 32.51 11.20L32.51 11.20L32.51 11.20Q32.13 12.08 31.84 13.01ZM38.25 9.60L38.25 9.60L38.25 9.60Q38.23 9.87 38.16 10.16L38.16 10.16L38.16 10.16Q38.08 10.44 37.97 10.68L37.97 10.68L37.97 10.68Q37.86 10.91 37.73 11.06L37.73 11.06L37.73 11.06Q37.60 11.21 37.49 11.21L37.49 11.21L37.49 11.21Q37.34 11.20 37.31 11.00L37.31 11.00L37.31 11.00Q37.31 10.96 37.34 10.87L37.34 10.87L37.34 10.87Q37.38 10.78 37.42 10.67L37.42 10.67L37.42 10.67Q37.46 10.56 37.50 10.44L37.50 10.44L37.50 10.44Q37.53 10.33 37.53 10.25L37.53 10.25L37.53 10.25Q37.53 10.05 37.44 9.92L37.44 9.92L37.44 9.92Q37.35 9.79 37.20 9.79L37.20 9.79L37.20 9.79Q36.64 9.79 36.34 10.49L36.34 10.49L36.34 10.49Q36.05 11.19 36.05 12.54L36.05 12.54L36.05 12.54Q36.05 12.68 36.06 12.71L36.06 12.71L36.06 12.71Q36.36 12.70 36.59 12.69L36.59 12.69L36.59 12.69Q36.82 12.68 37.04 12.68L37.04 12.68L37.04 12.68Q37.06 12.71 37.06 12.80L37.06 12.80L37.06 12.80Q37.06 12.92 37.00 12.98L37.00 12.98L37.00 12.98Q36.68 13.05 36.49 13.10L36.49 13.10L36.49 13.10Q36.30 13.15 36.20 13.19L36.20 13.19L36.20 13.19Q36.11 13.23 36.09 13.28L36.09 13.28L36.09 13.28Q36.06 13.33 36.06 13.41L36.06 13.41L36.06 13.41Q36.06 13.52 36.07 13.64L36.07 13.64L36.07 13.64Q36.08 13.75 36.08 13.92L36.08 13.92L36.08 13.92Q36.08 15.09 35.44 15.81L35.44 15.81L35.44 15.81Q34.80 16.52 33.67 16.63L33.67 16.63L33.67 16.63Q33.47 16.62 33.26 16.52L33.26 16.52L33.26 16.52Q33.05 16.42 32.87 16.27L32.87 16.27L32.87 16.27Q32.68 16.11 32.54 15.93L32.54 15.93L32.54 15.93Q32.40 15.74 32.34 15.54L32.34 15.54L32.34 15.54Q32.34 15.01 32.56 14.53L32.56 14.53L32.56 14.53Q32.79 14.04 33.17 13.67L33.17 13.67L33.17 13.67Q33.56 13.30 34.08 13.07L34.08 13.07L34.08 13.07Q34.61 12.84 35.22 12.80L35.22 12.80L35.22 12.80Q35.22 12.45 35.15 12.11L35.15 12.11L35.15 12.11Q35.08 11.77 35.01 11.46L35.01 11.46L35.01 11.46Q34.93 11.14 34.86 10.84L34.86 10.84L34.86 10.84Q34.79 10.54 34.79 10.25L34.79 10.25L34.79 10.25Q34.79 9.87 34.94 9.50L34.94 9.50L34.94 9.50Q35.10 9.13 35.35 8.81L35.35 8.81L35.35 8.81Q35.60 8.50 35.94 8.27L35.94 8.27L35.94 8.27Q36.27 8.05 36.64 7.97L36.64 7.97L36.64 7.97Q36.79 8.01 37.05 8.21L37.05 8.21L37.05 8.21Q37.31 8.41 37.56 8.67L37.56 8.67L37.56 8.67Q37.81 8.92 38.01 9.18L38.01 9.18L38.01 9.18Q38.21 9.44 38.25 9.60ZM33.63 15.99L33.63 15.99L33.63 15.99Q33.96 15.85 34.27 15.58L34.27 15.58L34.27 15.58Q34.57 15.32 34.79 14.98L34.79 14.98L34.79 14.98Q35.01 14.64 35.15 14.27L35.15 14.27L35.15 14.27Q35.28 13.89 35.28 13.52L35.28 13.52L35.28 13.52Q35 13.57 34.66 13.78L34.66 13.78L34.66 13.78Q34.33 14 34.03 14.30L34.03 14.30L34.03 14.30Q33.74 14.60 33.54 14.92L33.54 14.92L33.54 14.92Q33.35 15.25 33.35 15.48L33.35 15.48L33.35 15.48Q33.35 15.79 33.63 15.99ZM41.58 14.28L41.58 14.28L41.58 14.28Q41.58 13.66 41.87 12.55L41.87 12.55L41.87 12.55Q42.17 11.44 42.70 9.95L42.70 9.95L42.70 9.95Q43.57 7.59 44.33 6.01L44.33 6.01L44.33 6.01Q45.09 4.44 45.82 3.56L45.82 3.56L45.82 3.56Q45.99 3.58 46.24 3.70L46.24 3.70L46.24 3.70Q46.48 3.81 46.72 3.94L46.72 3.94L46.72 3.94Q46.96 4.07 47.15 4.21L47.15 4.21L47.15 4.21Q47.33 4.35 47.39 4.44L47.39 4.44L47.39 4.44Q46.30 5.73 45.47 7.21L45.47 7.21L45.47 7.21Q44.65 8.69 43.96 10.61L43.96 10.61L43.96 10.61Q43.37 12.26 43.06 13.59L43.06 13.59L43.06 13.59Q42.76 14.91 42.76 15.79L42.76 15.79L42.76 15.79Q42.76 16.03 42.76 16.09L42.76 16.09L42.76 16.09Q42.76 16.14 42.77 16.20L42.77 16.20L42.77 16.20Q42.57 16.17 42.43 16.10L42.43 16.10L42.43 16.10Q42.29 16.03 42.25 15.93L42.25 15.93L42.25 15.93Q42.22 15.86 42.10 15.73L42.10 15.73L42.10 15.73Q41.97 15.60 41.87 15.53L41.87 15.53L41.87 15.53Q41.75 15.44 41.66 15.09L41.66 15.09L41.66 15.09Q41.58 14.73 41.58 14.28ZM44.91 14.24L44.91 14.24L44.91 14.24Q44.91 14.11 44.93 13.92L44.93 13.92L44.93 13.92Q44.95 13.73 45.01 13.42L45.01 13.42L45.01 13.42Q45.07 13.10 45.16 12.66L45.16 12.66L45.16 12.66Q45.25 12.21 45.39 11.58L45.39 11.58L45.39 11.58Q45.42 11.44 45.51 11.13L45.51 11.13L45.51 11.13Q45.61 10.82 45.77 10.48L45.77 10.48L45.77 10.48Q45.93 10.14 46.17 9.81L46.17 9.81L46.17 9.81Q46.40 9.49 46.72 9.34L46.72 9.34L46.72 9.34Q46.96 9.39 47.35 9.63L47.35 9.63L47.35 9.63Q47.74 9.86 48.02 10.26L48.02 10.26L48.02 10.26Q47.70 10.63 47.48 10.99L47.48 10.99L47.48 10.99Q47.26 11.35 47.09 11.75L47.09 11.75L47.09 11.75Q46.91 12.14 46.77 12.56L46.77 12.56L46.77 12.56Q46.62 12.98 46.44 13.44L46.44 13.44L46.44 13.44Q46.28 13.83 46.16 14.25L46.16 14.25L46.16 14.25Q46.03 14.66 46.02 14.97L46.02 14.97L46.02 14.97Q46.02 15.22 46.01 15.32L46.01 15.32L46.01 15.32Q46.00 15.43 45.93 15.43L45.93 15.43L45.93 15.43Q45.88 15.43 45.71 15.36L45.71 15.36L45.71 15.36Q45.54 15.29 45.37 15.14L45.37 15.14L45.37 15.14Q45.19 14.99 45.05 14.77L45.05 14.77L45.05 14.77Q44.91 14.55 44.91 14.24ZM47.59 8.16L47.59 8.16L47.59 8.16Q47.59 8.08 47.63 7.91L47.63 7.91L47.63 7.91Q47.56 7.84 47.51 7.70L47.51 7.70L47.51 7.70Q47.46 7.56 47.46 7.45L47.46 7.45L47.46 7.45Q47.46 7.32 47.50 7.11L47.50 7.11L47.50 7.11Q47.53 6.89 47.59 6.64L47.59 6.64L47.59 6.64Q47.64 6.38 47.73 6.11L47.73 6.11L47.73 6.11Q47.81 5.84 47.89 5.61L47.89 5.61L47.89 5.61Q48.06 5.61 48.31 5.71L48.31 5.71L48.31 5.71Q48.55 5.80 48.80 5.94L48.80 5.94L48.80 5.94Q49.06 6.09 49.27 6.27L49.27 6.27L49.27 6.27Q49.48 6.44 49.59 6.59L49.59 6.59L49.59 6.59Q49.43 6.75 49.18 7.02L49.18 7.02L49.18 7.02Q48.93 7.29 48.69 7.59L48.69 7.59L48.69 7.59Q48.45 7.90 48.26 8.16L48.26 8.16L48.26 8.16Q48.06 8.43 48.01 8.54L48.01 8.54L48.01 8.54Q47.84 8.51 47.71 8.39L47.71 8.39L47.71 8.39Q47.59 8.27 47.59 8.16ZM45.37 19.35L45.37 19.35L45.37 19.35Q45.37 19.26 45.43 19.19L45.43 19.19L45.43 19.19Q45.49 19.12 45.56 19.05L45.56 19.05L45.56 19.05Q45.72 19.21 45.84 19.29L45.84 19.29L45.84 19.29Q45.96 19.38 46.07 19.43L46.07 19.43L46.07 19.43Q46.17 19.49 46.28 19.50L46.28 19.50L46.28 19.50Q46.40 19.52 46.55 19.52L46.55 19.52L46.55 19.52Q47.28 19.52 47.94 19.13L47.94 19.13L47.94 19.13Q48.59 18.75 49.18 18.02L49.18 18.02L49.18 18.02Q49.76 17.29 50.23 16.24L50.23 16.24L50.23 16.24Q50.71 15.19 51.07 13.86L51.07 13.86L51.07 13.86Q50.90 14.03 50.66 14.23L50.66 14.23L50.66 14.23Q50.41 14.43 50.15 14.62L50.15 14.62L50.15 14.62Q49.88 14.80 49.62 14.95L49.62 14.95L49.62 14.95Q49.36 15.11 49.18 15.18L49.18 15.18L49.18 15.18Q48.94 15.13 48.74 14.97L48.74 14.97L48.74 14.97Q48.54 14.81 48.38 14.57L48.38 14.57L48.38 14.57Q48.23 14.34 48.15 14.04L48.15 14.04L48.15 14.04Q48.06 13.73 48.06 13.40L48.06 13.40L48.06 13.40Q48.06 12.85 48.27 12.28L48.27 12.28L48.27 12.28Q48.47 11.70 48.80 11.15L48.80 11.15L48.80 11.15Q49.14 10.60 49.60 10.11L49.60 10.11L49.60 10.11Q50.05 9.62 50.56 9.25L50.56 9.25L50.56 9.25Q51.07 8.89 51.60 8.67L51.60 8.67L51.60 8.67Q52.12 8.46 52.63 8.46L52.63 8.46L52.63 8.46Q53.12 8.46 53.36 8.66L53.36 8.66L53.36 8.66Q53.61 8.86 53.72 9.35L53.72 9.35L53.72 9.35Q53.56 9.27 53.33 9.27L53.33 9.27L53.33 9.27Q52.99 9.27 52.55 9.53L52.55 9.53L52.55 9.53Q52.11 9.80 51.65 10.23L51.65 10.23L51.65 10.23Q51.20 10.65 50.75 11.21L50.75 11.21L50.75 11.21Q50.30 11.76 49.96 12.33L49.96 12.33L49.96 12.33Q49.62 12.91 49.40 13.45L49.40 13.45L49.40 13.45Q49.18 14 49.18 14.43L49.18 14.43L49.18 14.43Q49.18 14.53 49.20 14.55L49.20 14.55L49.20 14.55Q49.21 14.57 49.24 14.57L49.24 14.57L49.24 14.57Q49.36 14.57 49.58 14.43L49.58 14.43L49.58 14.43Q49.80 14.29 50.07 14.08L50.07 14.08L50.07 14.08Q50.34 13.86 50.64 13.57L50.64 13.57L50.64 13.57Q50.93 13.29 51.20 12.99L51.20 12.99L51.20 12.99Q51.80 12.32 52.30 11.49L52.30 11.49L52.30 11.49Q52.79 10.65 53.09 9.87L53.09 9.87L53.09 9.87Q53.47 9.90 53.76 10.00L53.76 10.00L53.76 10.00Q54.05 10.09 54.17 10.21L54.17 10.21L54.17 10.21Q53.69 11.30 53.40 12.04L53.40 12.04L53.40 12.04Q53.12 12.78 52.91 13.36L52.91 13.36L52.91 13.36Q52.53 14.36 52.20 15.20L52.20 15.20L52.20 15.20Q51.87 16.03 51.53 16.74L51.53 16.74L51.53 16.74Q51.18 17.44 50.79 18.05L50.79 18.05L50.79 18.05Q50.39 18.66 49.88 19.22L49.88 19.22L49.88 19.22Q49.64 19.49 49.34 19.69L49.34 19.69L49.34 19.69Q49.04 19.89 48.73 20.03L48.73 20.03L48.73 20.03Q48.41 20.17 48.11 20.24L48.11 20.24L48.11 20.24Q47.81 20.31 47.56 20.31L47.56 20.31L47.56 20.31Q47.22 20.31 46.87 20.24L46.87 20.24L46.87 20.24Q46.52 20.16 46.22 20.03L46.22 20.03L46.22 20.03Q45.92 19.89 45.70 19.72L45.70 19.72L45.70 19.72Q45.47 19.54 45.37 19.35ZM54.49 14.94L54.49 14.94L54.49 14.94Q54.49 14.45 54.59 13.78L54.59 13.78L54.59 13.78Q54.68 13.12 54.87 12.36L54.87 12.36L54.87 12.36Q55.06 11.61 55.32 10.78L55.32 10.78L55.32 10.78Q55.58 9.95 55.90 9.13L55.90 9.13L55.90 9.13Q56.18 8.39 56.55 7.63L56.55 7.63L56.55 7.63Q56.92 6.87 57.36 6.15L57.36 6.15L57.36 6.15Q57.79 5.42 58.26 4.76L58.26 4.76L58.26 4.76Q58.73 4.10 59.21 3.56L59.21 3.56L59.21 3.56Q59.43 3.56 59.69 3.61L59.69 3.61L59.69 3.61Q59.95 3.67 60.19 3.76L60.19 3.76L60.19 3.76Q60.44 3.85 60.64 3.98L60.64 3.98L60.64 3.98Q60.84 4.10 60.97 4.23L60.97 4.23L60.97 4.23Q59.92 5.31 59.08 6.40L59.08 6.40L59.08 6.40Q58.24 7.50 57.75 8.47L57.75 8.47L57.75 8.47Q57.48 9.00 57.27 9.46L57.27 9.46L57.27 9.46Q57.05 9.93 56.87 10.38L56.87 10.38L56.87 10.38Q56.69 10.84 56.54 11.29L56.54 11.29L56.54 11.29Q56.39 11.75 56.27 12.25L56.27 12.25L56.27 12.25Q58.95 8.82 60.26 8.82L60.26 8.82L60.26 8.82Q60.62 8.82 61.04 9.06L61.04 9.06L61.04 9.06Q61.46 9.30 61.78 9.70L61.78 9.70L61.78 9.70Q61.35 10.18 60.89 10.85L60.89 10.85L60.89 10.85Q60.42 11.52 60.04 12.20L60.04 12.20L60.04 12.20Q59.65 12.88 59.41 13.46L59.41 13.46L59.41 13.46Q59.16 14.04 59.16 14.32L59.16 14.32L59.16 14.32Q59.16 14.46 59.21 14.51L59.21 14.51L59.21 14.51Q59.25 14.56 59.39 14.56L59.39 14.56L59.39 14.56Q59.60 14.56 59.72 14.50L59.72 14.50L59.72 14.50Q59.85 14.45 59.88 14.45L59.88 14.45L59.88 14.45Q59.95 14.56 59.96 14.60L59.96 14.60L59.96 14.60Q59.98 14.64 59.98 14.67L59.98 14.67L59.98 14.67Q59.98 14.73 59.81 14.83L59.81 14.83L59.81 14.83Q59.64 14.94 59.41 15.04L59.41 15.04L59.41 15.04Q59.18 15.15 58.95 15.23L58.95 15.23L58.95 15.23Q58.73 15.32 58.62 15.32L58.62 15.32L58.62 15.32Q58.48 15.32 58.34 15.24L58.34 15.24L58.34 15.24Q58.20 15.16 58.09 15.04L58.09 15.04L58.09 15.04Q57.99 14.91 57.93 14.76L57.93 14.76L57.93 14.76Q57.86 14.60 57.86 14.43L57.86 14.43L57.86 14.43Q57.86 14.22 57.98 13.81L57.98 13.81L57.98 13.81Q58.10 13.40 58.31 12.85L58.31 12.85L58.31 12.85Q58.52 12.29 58.81 11.63L58.81 11.63L58.81 11.63Q59.11 10.98 59.44 10.29L59.44 10.29L59.44 10.29Q59.44 10.23 59.39 10.23L59.39 10.23L59.39 10.23Q59.35 10.23 59.17 10.35L59.17 10.35L59.17 10.35Q59.00 10.46 58.84 10.57L58.84 10.57L58.84 10.57Q58.34 10.95 57.83 11.50L57.83 11.50L57.83 11.50Q57.32 12.05 56.83 12.71L56.83 12.71L56.83 12.71Q56.35 13.37 55.92 14.11L55.92 14.11L55.92 14.11Q55.50 14.84 55.19 15.58L55.19 15.58L55.19 15.58Q55.15 15.68 55.06 15.76L55.06 15.76L55.06 15.76Q54.98 15.85 54.92 15.85L54.92 15.85L54.92 15.85Q54.88 15.85 54.80 15.75L54.80 15.75L54.80 15.75Q54.73 15.65 54.66 15.51L54.66 15.51L54.66 15.51Q54.60 15.36 54.54 15.20L54.54 15.20L54.54 15.20Q54.49 15.05 54.49 14.94ZM63.36 9.81L62.57 9.81L62.57 9.81Q62.50 9.73 62.44 9.46L62.44 9.46L62.44 9.46Q62.38 9.18 62.38 8.99L62.38 8.99L62.38 8.99Q62.75 9.02 63.08 9.04L63.08 9.04L63.08 9.04Q63.42 9.06 63.70 9.07L63.70 9.07L63.70 9.07Q63.91 8.65 64.16 8.24L64.16 8.24L64.16 8.24Q64.40 7.83 64.63 7.48L64.63 7.48L64.63 7.48Q64.86 7.14 65.06 6.90L65.06 6.90L65.06 6.90Q65.27 6.66 65.38 6.59L65.38 6.59L65.38 6.59Q65.52 6.59 65.74 6.64L65.74 6.64L65.74 6.64Q65.95 6.69 66.18 6.77L66.18 6.77L66.18 6.77Q66.40 6.85 66.58 6.93L66.58 6.93L66.58 6.93Q66.77 7.01 66.84 7.10L66.84 7.10L66.84 7.10Q66.42 7.63 66.12 8.09L66.12 8.09L66.12 8.09Q65.81 8.54 65.46 9.13L65.46 9.13L65.46 9.13Q65.74 9.13 66.03 9.11L66.03 9.11L66.03 9.11Q66.32 9.10 66.61 9.07L66.61 9.07L66.61 9.07Q66.68 9.14 66.72 9.25L66.72 9.25L66.72 9.25Q66.77 9.35 66.77 9.46L66.77 9.46L66.77 9.46Q66.08 9.72 65.10 9.74L65.10 9.74L65.10 9.74Q64.75 10.42 64.48 11.08L64.48 11.08L64.48 11.08Q64.20 11.75 64.02 12.36L64.02 12.36L64.02 12.36Q63.83 12.98 63.72 13.52L63.72 13.52L63.72 13.52Q63.62 14.07 63.62 14.50L63.62 14.50L63.62 14.50Q63.62 15.12 64.08 15.19L64.08 15.19L64.08 15.19Q64.50 15.13 64.88 14.98L64.88 14.98L64.88 14.98Q65.25 14.83 65.55 14.59L65.55 14.59L65.55 14.59Q65.63 14.71 65.65 14.80L65.65 14.80L65.65 14.80Q65.56 14.92 65.36 15.09L65.36 15.09L65.36 15.09Q65.16 15.26 64.92 15.42L64.92 15.42L64.92 15.42Q64.68 15.58 64.46 15.69L64.46 15.69L64.46 15.69Q64.23 15.81 64.12 15.82L64.12 15.82L64.12 15.82Q63.77 15.81 63.42 15.67L63.42 15.67L63.42 15.67Q63.07 15.53 62.78 15.32L62.78 15.32L62.78 15.32Q62.50 15.11 62.31 14.85L62.31 14.85L62.31 14.85Q62.13 14.59 62.13 14.34L62.13 14.34L62.13 14.34Q62.13 14 62.22 13.49L62.22 13.49L62.22 13.49Q62.31 12.98 62.48 12.38L62.48 12.38L62.48 12.38Q62.65 11.77 62.87 11.12L62.87 11.12L62.87 11.12Q63.10 10.46 63.36 9.81L63.36 9.81Z"></path></g><defs data-v-fde0c5aa=""><!----></defs><g data-v-fde0c5aa="" id="bb082741-08db-445e-ac01-ef0382a05879" stroke="none" fill="#FB0200" transform="matrix(1.406131821777994,0,0,1.406131821777994,83.50654190238248,36.79823791154307)"><path d="M51.15 57.239h.064a18.568 18.568 0 0 1-.064 0zM75.233 85.507c.054.712 1.653 1.047 2.368 1.052.694.005 2.102-.144 2.102-.927v-3.091l-4.47-.61s-.082 2.484 0 3.576z"></path><path d="M75.233 81.931c.001 0-.124-.017 0 0zM7.894 39.835c-.048-.103-.069-.159-.069-.159s.002.078.069.159z"></path><path d="M86.018 80.974c-1.22-1.307-8.452-6.186-16.903-9.584-5.041-2.027-10.244-2.875-13.626-3.229-.04-.29-.078-.818.035-1.496.175-1.047-1.83-1.222-1.83-1.222l.611-10.279-1.221-.697V2.277h-2.677v52.189l-1.22.697.61 10.279s-2.003.175-1.83 1.222c.113.678.075 1.206.034 1.496-3.381.354-8.586 1.203-13.625 3.229-8.452 3.398-15.564 8.396-16.902 9.584-.983.871-.692 1.453-.406 1.716-.66-.289 2.296 1.959 7.899 2.553 5.618.596 9.562.776 9.741.783-.049.023-.232.241-.854 1.831-.784 2.005-.436 2.525-.436 2.525s1.917 1.482 4.966 1.831c3.05.35 5.403.87 5.403.87s.087 1.133.522 2.614c.436 1.481 1.307 1.568 1.307 1.568s3.284.697 6.129.784c2.845-.087 6.13-.784 6.13-.784s.87-.087 1.307-1.568c.435-1.481.522-2.614.522-2.614s2.353-.521 5.403-.87c3.048-.349 4.965-1.831 4.965-1.831s.349-.521-.436-2.525c-.622-1.59-.805-1.808-.854-1.831.179-.007 4.123-.188 9.741-.783 5.751-.609 5.803-.913 7.388-1.852.839-.494 1.325-1.11.107-2.416zM49.316 55.207l1.222-.654s.759.213 1.207.213c.449 0 1.254-.213 1.254-.213l1.176.654s-.827.218-2.43.218c-1.403 0-2.429-.218-2.429-.218zm.285 10.45s1.418-.127 2.145-.127c.729 0 2.104.175 2.104.175s1.789.839 1.394.785a32.361 32.361 0 0 0-3.498-.317c-1.58-.042-3.12.185-3.398.206-.382.031 1.253-.722 1.253-.722zM24.269 84.438c-1.569-.322-7.057-.655-6.404-2.745.653-2.093 11.833-8.2 18.1-10.193 3.406-1.085 6.273-2.542 12.325-2.741 3.798-.125 20.022 16.724 20.022 16.724s-20.315.646-24.636.523c-6.693-.188-17.66-1.212-19.407-1.568zm33.663 12.448c-.997.847-13.459-3.628-13.459-3.628s5.287.523 7.323.523 7.293-.523 7.293-.523-.169 2.789-1.157 3.628zm3.127-9.54c-4.466.447-9.142.444-9.313.447-.172-.003-3.081 0-7.676-.447-5.348-.521-9.223-1.242-8.876-1.324 0 0 15.056.742 16.552.742 2.109 0 16.61-.583 16.61-.583.386.107-1.804.616-7.297 1.165z"></path></g><!----></svg>